<svg viewBox="0 0 16 10" fill="none" xmlns="http://www.w3.org/2000/svg">
    <path d="M10.625 0.218888C10.4779 0.101118 10.3005 0.0273044 10.1133 0.00595281C9.92609 -0.0153987 9.73665 0.0165806 9.56682 0.0982058C9.39698 0.179831 9.25367 0.30778 9.15338 0.467309C9.0531 0.626839 8.99993 0.811456 9 0.999888V3.99989H1C0.734784 3.99989 0.48043 4.10524 0.292893 4.29278C0.105357 4.48032 0 4.73467 0 4.99989C0 5.2651 0.105357 5.51946 0.292893 5.70699C0.48043 5.89453 0.734784 5.99989 1 5.99989H9V8.99989C8.99993 9.18832 9.0531 9.37294 9.15338 9.53247C9.25367 9.692 9.39698 9.81994 9.56682 9.90157C9.73665 9.98319 9.92609 10.0152 10.1133 9.99382C10.3005 9.97247 10.4779 9.89866 10.625 9.78089L15.625 5.78089C15.7422 5.6872 15.8367 5.56837 15.9017 5.43317C15.9667 5.29798 16.0005 5.14989 16.0005 4.99989C16.0005 4.84988 15.9667 4.7018 15.9017 4.5666C15.8367 4.43141 15.7422 4.31257 15.625 4.21889L10.625 0.218888Z" fill="currentColor"/>
</svg>
