<svg viewBox="0 0 16 10" fill="none" xmlns="http://www.w3.org/2000/svg">
    <path d="M15.0005 3.99989H7.00047V0.999888C7.00054 0.811456 6.94737 0.626839 6.84709 0.467309C6.7468 0.30778 6.60349 0.179831 6.43365 0.0982058C6.26382 0.0165806 6.07438 -0.0153987 5.88716 0.00595281C5.69994 0.0273044 5.52256 0.101118 5.37547 0.218888L0.375469 4.21889C0.258315 4.31257 0.163737 4.43141 0.0987423 4.5666C0.0337473 4.7018 0 4.84988 0 4.99989C0 5.14989 0.0337473 5.29798 0.0987423 5.43317C0.163737 5.56837 0.258315 5.6872 0.375469 5.78089L5.37547 9.78089C5.52256 9.89866 5.69994 9.97247 5.88716 9.99382C6.07438 10.0152 6.26382 9.98319 6.43365 9.90157C6.60349 9.81994 6.7468 9.692 6.84709 9.53247C6.94737 9.37294 7.00054 9.18832 7.00047 8.99989V5.99989H15.0005C15.2657 5.99989 15.52 5.89453 15.7076 5.70699C15.8951 5.51946 16.0005 5.2651 16.0005 4.99989C16.0005 4.73467 15.8951 4.48032 15.7076 4.29278C15.52 4.10524 15.2657 3.99989 15.0005 3.99989Z" fill="currentColor"/>
</svg>
