<svg viewBox="0 0 10 16" fill="none" xmlns="http://www.w3.org/2000/svg">
    <path d="M5.78138 0.375088C5.68413 0.263512 5.56411 0.174068 5.42939 0.112778C5.29467 0.0514881 5.14838 0.0197754 5.00038 0.0197754C4.85237 0.0197754 4.70608 0.0514881 4.57136 0.112778C4.43664 0.174068 4.31662 0.263512 4.21938 0.375088L0.219376 5.37509C0.101606 5.52218 0.0277926 5.69956 0.00644109 5.88678C-0.0149105 6.07399 0.0170689 6.26344 0.0986941 6.43327C0.180319 6.6031 0.308268 6.74642 0.467798 6.8467C0.627327 6.94699 0.811944 7.00016 1.00038 7.00009H4.00038V15.0001C4.00038 15.2653 4.10573 15.5197 4.29327 15.7072C4.48081 15.8947 4.73516 16.0001 5.00038 16.0001C5.26559 16.0001 5.51995 15.8947 5.70748 15.7072C5.89502 15.5197 6.00038 15.2653 6.00038 15.0001V7.00009H9.00038C9.18881 7.00016 9.37342 6.94699 9.53295 6.8467C9.69248 6.74642 9.82043 6.6031 9.90206 6.43327C9.98368 6.26344 10.0157 6.07399 9.99431 5.88678C9.97296 5.69956 9.89915 5.52218 9.78138 5.37509L5.78138 0.375088Z" fill="currentColor"/>
</svg>
